<?xml version="1.0" encoding="UTF-8"?>
<svg width="300px" height="73px" viewBox="0 0 300 73" version="1.1" xmlns="http://www.w3.org/2000/svg" xmlns:xlink="http://www.w3.org/1999/xlink">
    <!-- Generator: Sketch 58 (84663) - https://sketch.com -->
    <title>Logo</title>
    <desc>Created with Sketch.</desc>
    <defs>
        <linearGradient x1="0%" y1="47.0735199%" x2="100%" y2="52.9264801%" id="linearGradient-1">
            <stop stop-color="#06917B" offset="0%"></stop>
            <stop stop-color="#056065" offset="100%"></stop>
        </linearGradient>
    </defs>
    <g id="Joon-Styles" stroke="none" stroke-width="1" fill="none" fill-rule="evenodd">
        <g id="Style-Guide" transform="translate(-446.000000, -384.000000)" fill="url(#linearGradient-1)">
            <g id="Logos" transform="translate(446.000000, 209.000000)">
                <g id="Logo-/-Joon-/-Gradient" transform="translate(0.000000, 175.000000)">
                    <path d="M69.5504801,7.17648163e-13 L69.5504801,39.0257864 C69.5504801,49.6361122 66.4904795,57.8806913 60.3716903,63.7595237 C54.252901,69.6389583 45.720044,72.5786756 34.7737252,72.5786756 C23.8268004,72.5786756 15.2951553,69.6389583 9.1757601,63.7595237 C3.19525999,58.0137947 0.139711931,50.0065332 0.00453274155,39.741156 L-5.68434189e-14,39.1576852 L24.0752361,39.1576852 C24.1715807,43.9301335 25.1023056,47.4347873 26.8704406,49.6698398 C28.7397677,52.0361887 31.4422632,53.2178575 34.9779272,53.2178575 C38.5117734,53.2178575 41.214269,52.0361887 43.0860198,49.6698398 C44.8944596,47.3809903 45.8289828,43.7638084 45.8873928,38.8161105 L45.8903134,38.3169056 L45.8903134,23.5237614 L24.1079569,23.5237614 L24.1079569,7.17648163e-13 L69.5504801,7.17648163e-13 Z M111.233429,0.810244155 C130.947709,0.810244155 146.92879,16.6947155 146.92879,36.2898196 C146.92879,55.8843215 130.947709,71.7687929 111.233429,71.7687929 C91.5197536,71.7687929 75.5386735,55.8843215 75.5386735,36.2898196 C75.5386735,16.6947155 91.5197536,0.810244155 111.233429,0.810244155 Z M188.079616,0.810244155 C207.793897,0.810244155 223.774978,16.6947155 223.774978,36.2898196 C223.774978,55.8843215 207.793897,71.7687929 188.079616,71.7687929 C168.365942,71.7687929 152.384861,55.8843215 152.384861,36.2898196 C152.384861,16.6947155 168.365942,0.810244155 188.079616,0.810244155 Z M249.41607,0.811027116 L276.544035,33.0455305 L276.544035,0.811027116 L300,0.811027116 L300,71.767769 L280.214824,71.767769 L253.087465,39.5326633 L253.087465,71.767769 L229.630894,71.767769 L229.630894,0.811027116 L249.41607,0.811027116 Z M111.233429,24.15272 C104.500821,24.15272 99.0231174,29.5973101 99.0231174,36.2898196 C99.0231174,42.9817269 104.500821,48.4263171 111.233429,48.4263171 C117.966642,48.4263171 123.44374,42.9817269 123.44374,36.2898196 C123.44374,29.5973101 117.966642,24.15272 111.233429,24.15272 Z M188.079616,24.15272 C181.347009,24.15272 175.869911,29.5973101 175.869911,36.2898196 C175.869911,42.9817269 181.347009,48.4263171 188.079616,48.4263171 C194.81283,48.4263171 200.289928,42.9817269 200.289928,36.2898196 C200.289928,29.5973101 194.81283,24.15272 188.079616,24.15272 Z" id="Logo"></path>
                </g>
            </g>
        </g>
    </g>
</svg>