<?xml version="1.0" encoding="UTF-8"?>
<svg width="16px" height="18px" viewBox="0 0 16 18" version="1.1" xmlns="http://www.w3.org/2000/svg" xmlns:xlink="http://www.w3.org/1999/xlink">
    <!-- Generator: Sketch 58 (84663) - https://sketch.com -->
    <title>Shape</title>
    <desc>Created with Sketch.</desc>
    <g id="Symbols" stroke="none" stroke-width="1" fill="none" fill-rule="evenodd">
        <g id="Component/icon/ic_Up" transform="translate(-4.000000, -3.000000)" fill="#0062FF">
            <path d="M11.2469581,4.34202742 C11.6103465,3.92613401 12.2420792,3.88357027 12.6579726,4.24695865 L12.6579726,4.24695865 L20.6579726,11.2369877 C20.8562417,11.410226 20.9683239,11.6422168 20.9941832,11.8818779 C20.9976339,11.9202586 20.9999997,11.9598532 20.9999997,12.0000003 C20.9999997,12.3386404 20.8316732,12.6379657 20.5741253,12.8188711 L12.6590351,19.7521122 C12.2436551,20.1160874 11.6118629,20.0744156 11.2478878,19.6590357 C10.8839126,19.2436557 10.9255844,18.6118635 11.3409643,18.2478883 L11.3409643,18.2478883 L17.3289997,12.9999863 L3.99999971,13.0000003 C3.48716387,13.0000003 3.06449255,12.6139601 3.00672744,12.1166214 L2.99999971,12.0000003 C2.99999971,11.4477155 3.44771496,11.0000003 3.99999971,11.0000003 L3.99999971,11.0000003 L17.3469997,10.9999863 L11.3420268,5.75304193 C10.9581252,5.4176065 10.892327,4.85352265 11.1702906,4.44161391 Z" id="Shape" transform="translate(12.000000, 12.000000) rotate(-90.000000) translate(-12.000000, -12.000000) "></path>
        </g>
    </g>
</svg>